# xmcd CD database file
#
# Track frame offsets:
#	150
#	21558
#	36433
#	66317
#	84098
#	98464
#	119816
#	149890
#	171484
#	189215
#	203873
#	223443
#	238523
#
# Disc length: 3456 seconds
#
# Revision: 0
# Processed by: cddbd v1.5.2PL0 Copyright (c) Steve Scherf et al.
# Submitted via: CDex 1.50
#
DISCID=cb0d7e0d
DTITLE=Ilona Knopfler - Some Kind Of Wonderful 
DYEAR=2003
DGENRE=Jazz
TTITLE0=Some Kind Of Wonderful
TTITLE1=It's The Time Of The Season
TTITLE2=Breaking Up Is Hard To Do
TTITLE3=One
TTITLE4=Something
TTITLE5=Moondance
TTITLE6=Alfie
TTITLE7=Unchain My Heart
TTITLE8=Don't Let Me Be Misunderstood
TTITLE9=He's Not There
TTITLE10=River Man
TTITLE11=Never My Love
TTITLE12=Can't You See
EXTD=YEAR: 2003
EXTT0=
EXTT1=
EXTT2=
EXTT3=
EXTT4=
EXTT5=
EXTT6=
EXTT7=
EXTT8=
EXTT9=
EXTT10=
EXTT11=
EXTT12=
PLAYORDER=
